<!-- RemoteVault icon sprite. Inline SVG, single source, referenced via <svg><use href="#icon-name"/></svg>.
     Drop this snippet at top of each page body. Stroke-based, currentColor. -->
<svg width="0" height="0" style="position:absolute" aria-hidden="true">
  <defs>
    <symbol id="i-server" viewBox="0 0 24 24" fill="none" stroke="currentColor" stroke-width="1.6" stroke-linecap="round" stroke-linejoin="round">
      <rect x="3" y="4" width="18" height="7" rx="1.5"/>
      <rect x="3" y="13" width="18" height="7" rx="1.5"/>
      <line x1="7" y1="7.5" x2="7.01" y2="7.5"/>
      <line x1="7" y1="16.5" x2="7.01" y2="16.5"/>
    </symbol>
    <symbol id="i-vault" viewBox="0 0 24 24" fill="none" stroke="currentColor" stroke-width="1.6" stroke-linecap="round" stroke-linejoin="round">
      <rect x="3" y="3" width="18" height="18" rx="2"/>
      <circle cx="12" cy="12" r="4.5"/>
      <line x1="12" y1="7.5" x2="12" y2="6"/>
      <line x1="12" y1="18" x2="12" y2="16.5"/>
      <line x1="6" y1="12" x2="7.5" y2="12"/>
      <line x1="16.5" y1="12" x2="18" y2="12"/>
    </symbol>
    <symbol id="i-terminal" viewBox="0 0 24 24" fill="none" stroke="currentColor" stroke-width="1.6" stroke-linecap="round" stroke-linejoin="round">
      <rect x="3" y="4" width="18" height="16" rx="2"/>
      <polyline points="7 9 10 12 7 15"/>
      <line x1="13" y1="15" x2="17" y2="15"/>
    </symbol>
    <symbol id="i-sync" viewBox="0 0 24 24" fill="none" stroke="currentColor" stroke-width="1.6" stroke-linecap="round" stroke-linejoin="round">
      <polyline points="20 7 16 7 16 3"/>
      <path d="M20 7a8 8 0 0 0-14.7-1.5"/>
      <polyline points="4 17 8 17 8 21"/>
      <path d="M4 17a8 8 0 0 0 14.7 1.5"/>
    </symbol>
    <symbol id="i-devices" viewBox="0 0 24 24" fill="none" stroke="currentColor" stroke-width="1.6" stroke-linecap="round" stroke-linejoin="round">
      <rect x="2" y="5" width="13" height="11" rx="1.5"/>
      <rect x="14" y="9" width="8" height="11" rx="1.5"/>
      <line x1="6" y1="20" x2="11" y2="20"/>
      <line x1="8.5" y1="16" x2="8.5" y2="20"/>
    </symbol>
    <symbol id="i-shield" viewBox="0 0 24 24" fill="none" stroke="currentColor" stroke-width="1.6" stroke-linecap="round" stroke-linejoin="round">
      <path d="M12 3l8 3v6c0 5-3.5 8.5-8 9-4.5-.5-8-4-8-9V6l8-3z"/>
      <path d="M9 12l2 2 4-4"/>
    </symbol>
    <symbol id="i-settings" viewBox="0 0 24 24" fill="none" stroke="currentColor" stroke-width="1.6" stroke-linecap="round" stroke-linejoin="round">
      <circle cx="12" cy="12" r="3"/>
      <path d="M19.4 15a1.7 1.7 0 0 0 .3 1.8l.1.1a2 2 0 1 1-2.8 2.8l-.1-.1a1.7 1.7 0 0 0-1.8-.3 1.7 1.7 0 0 0-1 1.5V21a2 2 0 1 1-4 0v-.1a1.7 1.7 0 0 0-1.1-1.5 1.7 1.7 0 0 0-1.8.3l-.1.1A2 2 0 1 1 4.3 17l.1-.1a1.7 1.7 0 0 0 .3-1.8 1.7 1.7 0 0 0-1.5-1H3a2 2 0 1 1 0-4h.1a1.7 1.7 0 0 0 1.5-1.1 1.7 1.7 0 0 0-.3-1.8l-.1-.1A2 2 0 1 1 7 4.3l.1.1a1.7 1.7 0 0 0 1.8.3H9a1.7 1.7 0 0 0 1-1.5V3a2 2 0 1 1 4 0v.1a1.7 1.7 0 0 0 1 1.5 1.7 1.7 0 0 0 1.8-.3l.1-.1A2 2 0 1 1 19.7 7l-.1.1a1.7 1.7 0 0 0-.3 1.8V9a1.7 1.7 0 0 0 1.5 1H21a2 2 0 1 1 0 4h-.1a1.7 1.7 0 0 0-1.5 1z"/>
    </symbol>
    <symbol id="i-search" viewBox="0 0 24 24" fill="none" stroke="currentColor" stroke-width="1.6" stroke-linecap="round" stroke-linejoin="round">
      <circle cx="11" cy="11" r="7"/>
      <line x1="20" y1="20" x2="16.5" y2="16.5"/>
    </symbol>
    <symbol id="i-plus" viewBox="0 0 24 24" fill="none" stroke="currentColor" stroke-width="1.8" stroke-linecap="round" stroke-linejoin="round">
      <line x1="12" y1="5" x2="12" y2="19"/>
      <line x1="5" y1="12" x2="19" y2="12"/>
    </symbol>
    <symbol id="i-folder" viewBox="0 0 24 24" fill="none" stroke="currentColor" stroke-width="1.6" stroke-linecap="round" stroke-linejoin="round">
      <path d="M3 6.5A1.5 1.5 0 0 1 4.5 5h4l2 2h9A1.5 1.5 0 0 1 21 8.5V18a2 2 0 0 1-2 2H5a2 2 0 0 1-2-2V6.5z"/>
    </symbol>
    <symbol id="i-key" viewBox="0 0 24 24" fill="none" stroke="currentColor" stroke-width="1.6" stroke-linecap="round" stroke-linejoin="round">
      <circle cx="8" cy="14" r="4.5"/>
      <line x1="11" y1="11" x2="21" y2="3"/>
      <line x1="17" y1="5" x2="19" y2="7"/>
      <line x1="14" y1="8" x2="16" y2="10"/>
    </symbol>
    <symbol id="i-lock" viewBox="0 0 24 24" fill="none" stroke="currentColor" stroke-width="1.6" stroke-linecap="round" stroke-linejoin="round">
      <rect x="4.5" y="11" width="15" height="10" rx="1.5"/>
      <path d="M8 11V7a4 4 0 0 1 8 0v4"/>
    </symbol>
    <symbol id="i-unlock" viewBox="0 0 24 24" fill="none" stroke="currentColor" stroke-width="1.6" stroke-linecap="round" stroke-linejoin="round">
      <rect x="4.5" y="11" width="15" height="10" rx="1.5"/>
      <path d="M8 11V7a4 4 0 0 1 7.5-2"/>
    </symbol>
    <symbol id="i-eye" viewBox="0 0 24 24" fill="none" stroke="currentColor" stroke-width="1.6" stroke-linecap="round" stroke-linejoin="round">
      <path d="M2 12s3.5-7 10-7 10 7 10 7-3.5 7-10 7S2 12 2 12z"/>
      <circle cx="12" cy="12" r="3"/>
    </symbol>
    <symbol id="i-eye-off" viewBox="0 0 24 24" fill="none" stroke="currentColor" stroke-width="1.6" stroke-linecap="round" stroke-linejoin="round">
      <path d="M3 3l18 18"/>
      <path d="M10.6 10.6a2 2 0 0 0 2.8 2.8"/>
      <path d="M9.4 5.5A10 10 0 0 1 22 12c-.6 1.1-1.5 2.3-2.5 3.4"/>
      <path d="M6.6 6.6C4.4 8 2.7 10 2 12c1 2 4 7 10 7 1.6 0 3-.4 4.3-1"/>
    </symbol>
    <symbol id="i-copy" viewBox="0 0 24 24" fill="none" stroke="currentColor" stroke-width="1.6" stroke-linecap="round" stroke-linejoin="round">
      <rect x="9" y="9" width="11" height="11" rx="1.5"/>
      <path d="M5 15H4.5A1.5 1.5 0 0 1 3 13.5v-9A1.5 1.5 0 0 1 4.5 3h9A1.5 1.5 0 0 1 15 4.5V5"/>
    </symbol>
    <symbol id="i-trash" viewBox="0 0 24 24" fill="none" stroke="currentColor" stroke-width="1.6" stroke-linecap="round" stroke-linejoin="round">
      <polyline points="3 6 5 6 21 6"/>
      <path d="M8 6V4a2 2 0 0 1 2-2h4a2 2 0 0 1 2 2v2m3 0v14a2 2 0 0 1-2 2H7a2 2 0 0 1-2-2V6"/>
      <line x1="10" y1="11" x2="10" y2="17"/>
      <line x1="14" y1="11" x2="14" y2="17"/>
    </symbol>
    <symbol id="i-edit" viewBox="0 0 24 24" fill="none" stroke="currentColor" stroke-width="1.6" stroke-linecap="round" stroke-linejoin="round">
      <path d="M11 4H4a2 2 0 0 0-2 2v14a2 2 0 0 0 2 2h14a2 2 0 0 0 2-2v-7"/>
      <path d="M18.5 2.5a2.1 2.1 0 0 1 3 3L12 15l-4 1 1-4 9.5-9.5z"/>
    </symbol>
    <symbol id="i-tag" viewBox="0 0 24 24" fill="none" stroke="currentColor" stroke-width="1.6" stroke-linecap="round" stroke-linejoin="round">
      <path d="M20.6 13.4l-7.2 7.2a2 2 0 0 1-2.8 0L2 12V2h10l8.6 8.6a2 2 0 0 1 0 2.8z"/>
      <line x1="7" y1="7" x2="7.01" y2="7"/>
    </symbol>
    <symbol id="i-cloud" viewBox="0 0 24 24" fill="none" stroke="currentColor" stroke-width="1.6" stroke-linecap="round" stroke-linejoin="round">
      <path d="M17.5 19a4.5 4.5 0 1 0-1.4-8.8 6 6 0 0 0-11.5 2.3A4 4 0 0 0 5.5 19h12z"/>
    </symbol>
    <symbol id="i-hard-drive" viewBox="0 0 24 24" fill="none" stroke="currentColor" stroke-width="1.6" stroke-linecap="round" stroke-linejoin="round">
      <line x1="22" y1="12" x2="2" y2="12"/>
      <path d="M5.5 5h13L22 12v6a2 2 0 0 1-2 2H4a2 2 0 0 1-2-2v-6l3.5-7z"/>
      <line x1="6" y1="16" x2="6.01" y2="16"/>
      <line x1="10" y1="16" x2="10.01" y2="16"/>
    </symbol>
    <symbol id="i-link" viewBox="0 0 24 24" fill="none" stroke="currentColor" stroke-width="1.6" stroke-linecap="round" stroke-linejoin="round">
      <path d="M10 13a5 5 0 0 0 7 0l3-3a5 5 0 0 0-7-7l-1 1"/>
      <path d="M14 11a5 5 0 0 0-7 0l-3 3a5 5 0 0 0 7 7l1-1"/>
    </symbol>
    <symbol id="i-alert" viewBox="0 0 24 24" fill="none" stroke="currentColor" stroke-width="1.6" stroke-linecap="round" stroke-linejoin="round">
      <path d="M10.3 3.9L1.8 18a2 2 0 0 0 1.7 3h17a2 2 0 0 0 1.7-3L13.7 3.9a2 2 0 0 0-3.4 0z"/>
      <line x1="12" y1="9" x2="12" y2="13"/>
      <line x1="12" y1="17" x2="12.01" y2="17"/>
    </symbol>
    <symbol id="i-check" viewBox="0 0 24 24" fill="none" stroke="currentColor" stroke-width="2" stroke-linecap="round" stroke-linejoin="round">
      <polyline points="4 12 10 18 20 6"/>
    </symbol>
    <symbol id="i-x" viewBox="0 0 24 24" fill="none" stroke="currentColor" stroke-width="1.8" stroke-linecap="round" stroke-linejoin="round">
      <line x1="6" y1="6" x2="18" y2="18"/>
      <line x1="18" y1="6" x2="6" y2="18"/>
    </symbol>
    <symbol id="i-arrow-right" viewBox="0 0 24 24" fill="none" stroke="currentColor" stroke-width="1.6" stroke-linecap="round" stroke-linejoin="round">
      <line x1="5" y1="12" x2="19" y2="12"/>
      <polyline points="12 5 19 12 12 19"/>
    </symbol>
    <symbol id="i-chevron-right" viewBox="0 0 24 24" fill="none" stroke="currentColor" stroke-width="1.6" stroke-linecap="round" stroke-linejoin="round">
      <polyline points="9 6 15 12 9 18"/>
    </symbol>
    <symbol id="i-chevron-down" viewBox="0 0 24 24" fill="none" stroke="currentColor" stroke-width="1.6" stroke-linecap="round" stroke-linejoin="round">
      <polyline points="6 9 12 15 18 9"/>
    </symbol>
    <symbol id="i-info" viewBox="0 0 24 24" fill="none" stroke="currentColor" stroke-width="1.6" stroke-linecap="round" stroke-linejoin="round">
      <circle cx="12" cy="12" r="9"/>
      <line x1="12" y1="11" x2="12" y2="16"/>
      <line x1="12" y1="8" x2="12.01" y2="8"/>
    </symbol>
    <symbol id="i-laptop" viewBox="0 0 24 24" fill="none" stroke="currentColor" stroke-width="1.6" stroke-linecap="round" stroke-linejoin="round">
      <rect x="3" y="5" width="18" height="11" rx="2"/>
      <line x1="2" y1="20" x2="22" y2="20"/>
    </symbol>
    <symbol id="i-monitor" viewBox="0 0 24 24" fill="none" stroke="currentColor" stroke-width="1.6" stroke-linecap="round" stroke-linejoin="round">
      <rect x="3" y="3" width="18" height="13" rx="2"/>
      <line x1="8" y1="21" x2="16" y2="21"/>
      <line x1="12" y1="17" x2="12" y2="21"/>
    </symbol>
    <symbol id="i-phone" viewBox="0 0 24 24" fill="none" stroke="currentColor" stroke-width="1.6" stroke-linecap="round" stroke-linejoin="round">
      <rect x="6" y="2" width="12" height="20" rx="2.5"/>
      <line x1="12" y1="18" x2="12.01" y2="18"/>
    </symbol>
    <symbol id="i-bolt" viewBox="0 0 24 24" fill="none" stroke="currentColor" stroke-width="1.6" stroke-linecap="round" stroke-linejoin="round">
      <polygon points="13 2 3 14 12 14 11 22 21 10 12 10 13 2"/>
    </symbol>
    <symbol id="i-globe" viewBox="0 0 24 24" fill="none" stroke="currentColor" stroke-width="1.6" stroke-linecap="round" stroke-linejoin="round">
      <circle cx="12" cy="12" r="9"/>
      <line x1="3" y1="12" x2="21" y2="12"/>
      <path d="M12 3a14 14 0 0 1 0 18 14 14 0 0 1 0-18z"/>
    </symbol>
    <symbol id="i-power" viewBox="0 0 24 24" fill="none" stroke="currentColor" stroke-width="1.6" stroke-linecap="round" stroke-linejoin="round">
      <path d="M18.4 6.6a9 9 0 1 1-12.8 0"/>
      <line x1="12" y1="2" x2="12" y2="12"/>
    </symbol>
    <symbol id="i-circle" viewBox="0 0 24 24" fill="currentColor"><circle cx="12" cy="12" r="5"/></symbol>
    <symbol id="i-more" viewBox="0 0 24 24" fill="currentColor">
      <circle cx="5" cy="12" r="1.5"/><circle cx="12" cy="12" r="1.5"/><circle cx="19" cy="12" r="1.5"/>
    </symbol>
  </defs>
</svg>
